<svg width="35" height="35" viewBox="0 0 35 35" fill="none" xmlns="http://www.w3.org/2000/svg">
<path d="M5.83334 17.5C5.83334 17.8868 5.98699 18.2577 6.26048 18.5312C6.53397 18.8047 6.9049 18.9584 7.29168 18.9584C7.67845 18.9584 8.04938 18.8047 8.32287 18.5312C8.59636 18.2577 8.75001 17.8868 8.75001 17.5C8.75001 17.1132 8.59636 16.7423 8.32287 16.4688C8.04938 16.1953 7.67845 16.0417 7.29168 16.0417C6.9049 16.0417 6.53397 16.1953 6.26048 16.4688C5.98699 16.7423 5.83334 17.1132 5.83334 17.5ZM16.0417 17.5C16.0417 17.8868 16.1953 18.2577 16.4688 18.5312C16.7423 18.8047 17.1132 18.9584 17.5 18.9584C17.8868 18.9584 18.2577 18.8047 18.5312 18.5312C18.8047 18.2577 18.9583 17.8868 18.9583 17.5C18.9583 17.1132 18.8047 16.7423 18.5312 16.4688C18.2577 16.1953 17.8868 16.0417 17.5 16.0417C17.1132 16.0417 16.7423 16.1953 16.4688 16.4688C16.1953 16.7423 16.0417 17.1132 16.0417 17.5ZM26.25 17.5C26.25 17.8868 26.4037 18.2577 26.6771 18.5312C26.9506 18.8047 27.3216 18.9584 27.7083 18.9584C28.0951 18.9584 28.4661 18.8047 28.7395 18.5312C29.013 18.2577 29.1667 17.8868 29.1667 17.5C29.1667 17.1132 29.013 16.7423 28.7395 16.4688C28.4661 16.1953 28.0951 16.0417 27.7083 16.0417C27.3216 16.0417 26.9506 16.1953 26.6771 16.4688C26.4037 16.7423 26.25 17.1132 26.25 17.5Z" stroke="black" stroke-width="2" stroke-linecap="round" stroke-linejoin="round"/>
</svg>
