<svg width="25" height="28" viewBox="0 0 25 28" fill="none" xmlns="http://www.w3.org/2000/svg">
<path fill-rule="evenodd" clip-rule="evenodd" d="M12.5 4.10417C10.9227 4.10452 9.37744 4.54918 8.04118 5.38719C6.70493 6.22521 5.63176 7.42269 4.94463 8.84244C4.25749 10.2622 3.98419 11.8468 4.15603 13.4147C4.32787 14.9826 4.9379 16.4704 5.91623 17.7076C6.89457 18.9448 8.20163 19.8814 9.68768 20.4101C11.1737 20.9388 12.7786 21.0382 14.3186 20.6969C15.8585 20.3556 17.2711 19.5875 18.3947 18.4804C19.5182 17.3734 20.3071 15.9722 20.6711 14.4375H13.7917C13.2778 14.4375 12.785 14.2334 12.4217 13.87C12.0583 13.5067 11.8542 13.0139 11.8542 12.5C11.8542 11.9861 12.0583 11.4933 12.4217 11.13C12.785 10.7666 13.2778 10.5625 13.7917 10.5625H22.8334C23.3472 10.5625 23.84 10.7666 24.2034 11.13C24.5667 11.4933 24.7709 11.9861 24.7709 12.5C24.7709 15.3375 23.7875 18.0873 21.9882 20.2813C20.1888 22.4753 17.6848 23.9779 14.9022 24.5334C12.1196 25.0889 9.23055 24.6628 6.72675 23.3278C4.22295 21.9928 2.25918 19.8314 1.16972 17.2114C0.0802626 14.5914 -0.0675434 11.6748 0.751461 8.95814C1.57047 6.24143 3.30566 3.89252 5.66167 2.31124C8.01769 0.729964 10.8489 0.014051 13.6734 0.285371C16.4978 0.556692 19.141 1.79847 21.1529 3.79934C21.3333 3.9788 21.4766 4.19204 21.5746 4.42687C21.6725 4.66171 21.7233 4.91355 21.724 5.168C21.7246 5.42246 21.6752 5.67456 21.5784 5.9099C21.4816 6.14524 21.3395 6.35922 21.16 6.53961C20.9805 6.72001 20.7673 6.86329 20.5325 6.96127C20.2976 7.05926 20.0458 7.11003 19.7913 7.11069C19.2774 7.11202 18.7841 6.90915 18.4197 6.54671C16.8483 4.98003 14.719 4.10147 12.5 4.10417Z" fill="black"/>
</svg>
