<svg width="625" height="539" viewBox="0 0 625 539" fill="none" xmlns="http://www.w3.org/2000/svg">
<path d="M91.5258 498.488C213.569 552.496 411.431 552.512 533.474 498.488C655.518 444.464 655.5 356.906 533.474 302.898C411.449 248.89 213.569 248.89 91.5258 302.898C-30.5175 356.906 -30.4997 444.48 91.5258 498.488Z" fill="#8187B5"/>
<path d="M533.049 458.574C555.526 458.574 573.748 450.512 573.748 440.566C573.748 430.62 555.526 422.558 533.049 422.558C510.572 422.558 492.35 430.62 492.35 440.566C492.35 450.512 510.572 458.574 533.049 458.574Z" fill="#EBEBEB"/>
<path d="M82.2632 443.148L96.6618 435.435C104.701 429.343 110.82 421.349 114.372 412.296C118.818 400.915 118.198 392.265 115.01 387.923C111.096 382.578 100.948 383.516 100.54 394.764C99.6904 416.933 92.7301 432.31 82.2632 443.148Z" fill="#686DC8"/>
<path opacity="0.2" d="M82.2632 443.148L96.6618 435.435C104.701 429.343 110.82 421.349 114.372 412.296C118.818 400.915 118.198 392.265 115.01 387.923C111.096 382.578 100.948 383.516 100.54 394.764C99.6904 416.933 92.7301 432.31 82.2632 443.148Z" fill="black"/>
<path d="M82.2632 443.97C82.0757 443.968 81.8937 443.911 81.7436 443.806C81.5934 443.702 81.4828 443.556 81.4276 443.39C81.3725 443.223 81.3757 443.045 81.4367 442.88C81.4977 442.716 81.6135 442.573 81.7673 442.474C115.063 421.094 108.616 391.278 108.546 390.982C108.521 390.874 108.52 390.762 108.542 390.654C108.564 390.546 108.608 390.442 108.673 390.35C108.738 390.257 108.822 390.178 108.92 390.116C109.019 390.053 109.129 390.01 109.245 389.987C109.361 389.964 109.481 389.963 109.598 389.983C109.715 390.004 109.826 390.045 109.926 390.106C110.025 390.166 110.111 390.244 110.178 390.335C110.245 390.426 110.292 390.529 110.317 390.637C110.317 390.949 117.117 421.785 82.8299 443.822C82.6635 443.928 82.4644 443.98 82.2632 443.97Z" fill="white"/>
<path d="M53.4127 458.623C53.4127 458.623 48.4006 454.841 49.6049 449.71C50.8093 444.579 54.0503 440.895 48.5069 434.284C42.9635 427.672 41.4227 418.857 48.0464 414.088C53.0939 410.388 60.9751 415.618 63.8088 405.865C65.8986 398.728 65.1902 382.923 74.9841 377.661C84.778 372.398 90.9236 380.325 89.3828 391.048C88.0368 400.636 86.124 409.862 87.6117 412.427C90.4808 417.361 95.3867 416.687 95.1564 425.699C94.9616 434.086 86.4074 441.026 86.4074 441.026L53.4127 458.623Z" fill="#686DC8"/>
<path d="M69.8658 450.581C69.6493 450.579 69.4408 450.505 69.2782 450.372C69.1157 450.239 69.01 450.057 68.9803 449.858C66.4476 430.37 72.5224 396.721 77.4813 386.722C77.5231 386.611 77.5899 386.51 77.6774 386.425C77.7649 386.34 77.8709 386.274 77.9884 386.23C78.1058 386.187 78.232 386.167 78.3584 386.172C78.4848 386.178 78.6084 386.208 78.721 386.262C78.8268 386.306 78.9219 386.37 79.0007 386.448C79.0796 386.527 79.1407 386.62 79.1803 386.721C79.2199 386.822 79.2373 386.93 79.2314 387.038C79.2256 387.145 79.1965 387.25 79.1461 387.347C74.2403 397.215 68.3781 430.962 70.8044 449.595C70.8293 449.81 70.7614 450.026 70.6154 450.196C70.4695 450.365 70.2573 450.474 70.0252 450.499L69.8658 450.581Z" fill="white"/>
<path d="M69.3876 435.402C69.2521 435.408 69.1173 435.38 68.998 435.32C62.8524 432.54 58.9561 422.623 58.7967 422.163C58.7533 422.061 58.7324 421.951 58.7353 421.842C58.7382 421.732 58.7648 421.623 58.8135 421.523C58.8623 421.423 58.9321 421.333 59.019 421.258C59.1059 421.183 59.208 421.126 59.3194 421.088C59.4307 421.051 59.549 421.035 59.6672 421.04C59.7855 421.046 59.9012 421.074 60.0077 421.122C60.1142 421.17 60.2092 421.238 60.2872 421.32C60.3651 421.403 60.4244 421.499 60.4615 421.604C60.4615 421.703 64.2692 431.307 69.7772 433.79C69.9579 433.871 70.1035 434.007 70.1901 434.175C70.2767 434.344 70.2992 434.534 70.2539 434.716C70.2086 434.897 70.0982 435.059 69.9408 435.175C69.7834 435.291 69.5883 435.353 69.3876 435.353V435.402Z" fill="white"/>
<path d="M69.2814 441.98C69.1039 441.98 68.9307 441.93 68.785 441.836C68.6394 441.742 68.5283 441.608 68.4667 441.454C68.3786 441.253 68.3794 441.028 68.4689 440.828C68.5585 440.628 68.7295 440.469 68.9449 440.385C79.2878 436.537 85.7345 425.107 85.8053 424.975C85.9133 424.781 86.1 424.635 86.3242 424.569C86.5484 424.502 86.7918 424.521 87.0008 424.622C87.2098 424.722 87.3673 424.895 87.4387 425.104C87.5102 425.312 87.4896 425.538 87.3815 425.732C87.0982 426.225 80.563 437.836 69.671 441.914C69.5497 441.968 69.4152 441.991 69.2814 441.98Z" fill="white"/>
<path d="M430.806 353.502C430.806 353.502 423.067 341.858 422.305 329.212C421.544 316.565 424.537 311.302 428.646 309.789C432.754 308.276 433.073 312.93 435.181 315.677C437.288 318.423 441.592 316.861 443.186 308.293C444.78 299.724 450.589 285.268 462.668 282.456C475.95 279.397 468.831 293.87 465.484 299.51C462.136 305.151 459.55 312.848 461.747 314.937C463.943 317.025 467.361 313.161 470.602 316.746C474.551 321.071 462.278 336.645 455.229 340.411L430.806 353.502Z" fill="#686DC8"/>
<path d="M441.415 348.618C441.299 348.613 441.184 348.588 441.079 348.543C440.973 348.497 440.878 348.433 440.799 348.354C440.72 348.274 440.659 348.181 440.618 348.08C440.578 347.978 440.56 347.87 440.565 347.762C441.764 327.418 448.596 307.706 460.401 290.531C460.467 290.442 460.553 290.366 460.652 290.308C460.752 290.25 460.863 290.211 460.979 290.194C461.095 290.178 461.213 290.183 461.327 290.209C461.44 290.236 461.547 290.284 461.64 290.35C461.826 290.478 461.95 290.669 461.987 290.881C462.023 291.093 461.969 291.31 461.835 291.485C450.242 308.408 443.533 327.817 442.353 347.845C442.347 347.953 442.317 348.058 442.266 348.156C442.215 348.253 442.144 348.34 442.057 348.412C441.97 348.484 441.868 348.539 441.758 348.574C441.648 348.61 441.531 348.624 441.415 348.618Z" fill="white"/>
<path d="M442.424 338.898C442.276 338.897 442.131 338.863 441.999 338.799C437.04 336.25 434.295 328.685 434.189 328.373C434.15 328.27 434.133 328.162 434.14 328.053C434.146 327.944 434.176 327.838 434.227 327.74C434.278 327.642 434.349 327.555 434.437 327.483C434.525 327.411 434.627 327.355 434.738 327.32C434.961 327.253 435.204 327.27 435.413 327.369C435.622 327.468 435.781 327.639 435.854 327.847C435.854 327.847 438.51 335.132 442.938 337.352C443.139 337.462 443.286 337.64 443.348 337.849C443.411 338.057 443.385 338.28 443.275 338.471C443.194 338.612 443.071 338.728 442.92 338.804C442.768 338.881 442.596 338.913 442.424 338.898Z" fill="white"/>
<path d="M443.292 333.915C443.096 333.913 442.906 333.851 442.752 333.737C442.598 333.624 442.489 333.467 442.442 333.29C442.413 333.186 442.406 333.078 442.423 332.972C442.439 332.866 442.478 332.764 442.538 332.672C442.597 332.58 442.676 332.501 442.769 332.437C442.862 332.374 442.967 332.328 443.08 332.303C455.867 329.294 460.294 323.077 460.33 323.011C460.393 322.92 460.474 322.84 460.57 322.778C460.666 322.715 460.774 322.671 460.888 322.647C461.003 322.624 461.121 322.621 461.236 322.64C461.352 322.659 461.462 322.698 461.561 322.757C461.659 322.815 461.745 322.891 461.812 322.98C461.88 323.069 461.927 323.169 461.953 323.275C461.978 323.381 461.981 323.491 461.961 323.598C461.941 323.705 461.898 323.808 461.835 323.9C461.64 324.179 457.036 330.708 443.522 333.899L443.292 333.915Z" fill="white"/>
<path d="M238.116 327.945C238.116 327.945 221.131 324.097 220.246 294.56C219.307 262.688 224.408 225.488 204.306 222.479C184.205 219.469 173.047 242.213 173.295 268.773C173.525 292.028 183.621 342.516 238.045 352.417L238.116 327.945Z" fill="#686DC8"/>
<path opacity="0.2" d="M238.116 327.945C238.116 327.945 221.131 324.097 220.246 294.56C219.307 262.688 224.408 225.488 204.306 222.479C184.205 219.469 173.047 242.213 173.295 268.773C173.525 292.028 183.621 342.516 238.045 352.417L238.116 327.945Z" fill="black"/>
<path d="M238.116 349.39H237.956C225.718 347.318 215.747 341.052 208.327 330.79C186.33 300.316 193.255 243.414 195.54 233.481C195.591 233.269 195.728 233.084 195.923 232.964C196.118 232.845 196.355 232.8 196.585 232.839C196.814 232.89 197.013 233.021 197.142 233.205C197.27 233.388 197.318 233.611 197.275 233.826C195.026 243.694 188.137 299.872 209.797 329.869C212.95 334.521 217.109 338.514 222.012 341.594C226.914 344.674 232.452 346.775 238.275 347.762C238.391 347.782 238.501 347.823 238.599 347.883C238.698 347.942 238.782 348.019 238.848 348.11C238.914 348.2 238.96 348.302 238.983 348.409C239.007 348.516 239.007 348.626 238.984 348.733C238.946 348.92 238.838 349.089 238.679 349.209C238.52 349.329 238.321 349.394 238.116 349.39Z" fill="white"/>
<path d="M238.116 425.189C220.565 427.393 192.068 427.36 175.615 415.322C159.162 403.283 162.598 392.922 168.921 388.597C175.243 384.272 180.734 379.338 169.859 369.734C158.985 360.13 141.523 344.703 135.855 321.564C130.188 298.425 132.986 283.953 144.108 279.134C154.894 274.464 157.745 281.897 164.351 297.224C170.957 312.552 185.817 299.412 198.533 304.198C211.249 308.983 210.735 318.456 211.532 326.597C212.329 334.737 216.527 336.99 223.735 336.99C230.943 336.99 238.116 340.839 238.116 348.502V425.189Z" fill="#686DC8"/>
<path d="M238.116 398.317C238.04 398.332 237.961 398.332 237.886 398.317C237.124 398.119 218.971 393.218 192.529 370.671C164.369 346.66 151.086 310.644 150.945 310.282C150.877 310.075 150.898 309.852 151.003 309.658C151.109 309.465 151.291 309.318 151.511 309.246C151.732 309.178 151.973 309.193 152.182 309.289C152.391 309.384 152.551 309.552 152.627 309.756C152.751 310.118 165.91 345.74 193.733 369.454C219.803 391.705 238.169 396.689 238.364 396.738C238.475 396.768 238.579 396.818 238.67 396.886C238.761 396.954 238.836 397.037 238.892 397.132C238.948 397.227 238.983 397.331 238.996 397.438C239.009 397.545 238.998 397.654 238.966 397.758C238.908 397.924 238.795 398.068 238.641 398.169C238.488 398.27 238.304 398.321 238.116 398.317Z" fill="white"/>
<path d="M199.914 376.394C199.736 376.397 199.562 376.348 199.416 376.253C199.269 376.159 199.159 376.024 199.099 375.868C193.414 362.317 192.122 333.323 192.015 332.09C192.01 331.873 192.096 331.662 192.255 331.503C192.413 331.343 192.632 331.247 192.865 331.234C193.097 331.237 193.319 331.32 193.489 331.465C193.658 331.611 193.765 331.81 193.786 332.024C193.786 332.32 195.115 361.972 200.693 375.276C200.736 375.378 200.757 375.486 200.754 375.595C200.751 375.704 200.725 375.811 200.677 375.91C200.629 376.01 200.561 376.099 200.476 376.174C200.39 376.249 200.29 376.307 200.18 376.345C200.094 376.374 200.005 376.39 199.914 376.394Z" fill="white"/>
<path d="M199.772 395.883C198.14 395.895 196.508 395.818 194.884 395.652C194.768 395.64 194.656 395.605 194.554 395.552C194.452 395.499 194.362 395.427 194.289 395.342C194.217 395.256 194.163 395.158 194.132 395.054C194.1 394.949 194.091 394.84 194.105 394.732C194.119 394.624 194.156 394.519 194.213 394.424C194.271 394.33 194.348 394.246 194.44 394.179C194.532 394.112 194.637 394.062 194.75 394.033C194.863 394.003 194.981 393.995 195.097 394.008C195.256 394.008 211.745 395.751 219.307 388.597C219.386 388.511 219.483 388.44 219.593 388.39C219.702 388.34 219.821 388.312 219.943 388.306C220.065 388.301 220.187 388.32 220.301 388.36C220.415 388.401 220.518 388.463 220.605 388.542C220.692 388.622 220.761 388.717 220.806 388.822C220.851 388.928 220.873 389.04 220.869 389.154C220.865 389.267 220.836 389.378 220.784 389.481C220.731 389.583 220.657 389.674 220.565 389.748C215.092 394.995 205.546 395.883 199.772 395.883Z" fill="white"/>
<path d="M187.021 84.4655L185.108 74.2198L175.261 80.2389C174.361 78.5945 173.086 77.1521 171.524 76.0124L176.235 64.1714L167.38 62.3459L160.898 73.858C158.553 74.2254 156.279 74.9126 154.15 75.8973L151.334 67.2139L140.814 74.8941L141.505 85.0904C139.363 87.3188 137.42 89.7059 135.696 92.2279L127.018 91.8168L120.925 104.496L128.381 107.457C127.603 110.079 127.111 112.768 126.911 115.482L117.436 123.574L119.331 133.836L129.196 127.817C130.091 129.46 131.367 130.898 132.933 132.027L128.311 143.884L137.166 145.693L146.446 137.306C148.589 136.993 148.058 133.244 150.396 132.175L153.212 140.825L163.714 133.161L163.448 129.149C165.573 126.945 173.614 122.093 175.35 119.561L177.528 116.272L183.62 103.592L180.787 98.8227L177.634 92.6062L187.021 84.4655ZM154.876 118.196C146.8 124.083 144.25 125.383 142.886 117.505C141.523 109.628 146.145 97.655 154.221 91.751C162.297 85.847 165.379 85.4358 166.831 93.2969C168.283 101.158 162.97 112.374 154.876 118.196Z" fill="#E0E0E0"/>
<path d="M167.451 62.3459L178.945 68.4967L172.463 79.9758L160.969 73.8251L167.451 62.3459Z" fill="#F5F5F5"/>
<path d="M196.602 80.3705L186.755 86.3897L175.261 80.2389L185.108 74.2198L196.602 80.3705Z" fill="#F5F5F5"/>
<path d="M195.026 109.693L187.57 106.75L176.076 100.599L183.532 103.543L195.026 109.693Z" fill="#E0E0E0"/>
<path d="M128.293 143.884L139.787 150.018L144.498 138.177L133.004 132.027L128.293 143.884Z" fill="#E0E0E0"/>
<path d="M164.599 146.976L153.123 140.825L150.307 132.175L161.801 138.325L164.599 146.976Z" fill="#E0E0E0"/>
<path d="M198.497 90.6162L196.602 80.3705L186.755 86.3897C185.849 84.7444 184.568 83.3022 183.001 82.1631L187.712 70.3222L178.945 68.4967L172.445 80.0087C170.1 80.3761 167.826 81.0633 165.697 82.048L162.899 73.3975L152.379 81.0777L153.07 91.2741C150.925 93.5182 148.982 95.9218 147.261 98.4609L138.565 98.0497L132.472 110.729L139.929 113.69C139.157 116.319 138.665 119.013 138.459 121.732L129.001 129.708L130.896 139.97L140.743 133.951C141.65 135.591 142.931 137.028 144.498 138.161L139.787 150.002L148.642 151.827L155.124 140.315C157.478 139.952 159.76 139.259 161.89 138.26L164.688 146.91L175.208 139.246L174.517 129.05C176.66 126.822 178.602 124.435 180.326 121.913L189.022 122.307L195.115 109.628L187.552 106.684C188.336 104.056 188.835 101.362 189.04 98.6418L198.497 90.6162ZM166.388 124.412C158.33 130.3 150.608 128.705 149.138 120.844C147.668 112.982 153.034 101.816 161.11 95.9282C169.186 90.0407 176.89 91.6523 178.36 99.5134C179.83 107.374 174.464 118.525 166.388 124.412Z" fill="#EBEBEB"/>
<path d="M162.899 73.3646L151.405 67.2139L140.885 74.8941L152.379 81.0448L162.899 73.3646Z" fill="#F5F5F5"/>
<path d="M140.885 74.8941L141.576 85.0904L153.07 91.2412L152.379 81.0448L140.885 74.8941Z" fill="#E0E0E0"/>
<path d="M147.261 98.3786L135.767 92.2279L127.089 91.8332L138.565 97.9839L147.261 98.3786Z" fill="#F5F5F5"/>
<path d="M127.089 91.8332L120.996 104.496L132.473 110.647L138.565 97.9839L127.089 91.8332Z" fill="#E0E0E0"/>
<path d="M138.459 121.633L126.982 115.482L117.507 123.574L128.984 129.724L138.459 121.633Z" fill="#F5F5F5"/>
<path d="M130.896 139.986L119.402 133.836L117.507 123.574L128.984 129.724L130.896 139.986Z" fill="#E0E0E0"/>
<path d="M178.945 68.4967L167.451 62.3459L176.235 64.1714L187.712 70.3221L178.945 68.4967Z" fill="#F5F5F5"/>
<path d="M135.554 37.9568V22.6458L122.431 28.1387C121.736 25.541 120.535 23.0831 118.888 20.8861L127.159 5.41066L117.064 0L106.757 14.3901C103.884 14.157 100.99 14.4191 98.2203 15.163L96.7681 1.85838L82.4934 9.5221L81.0588 24.3233C77.9522 26.8795 75.0955 29.6862 72.5224 32.7106L62.2148 29.4215L52.1198 45.6699L60.3729 52.2482C58.848 55.8293 57.6627 59.5272 56.8308 63.2998L43.7073 71.868V87.1955L56.8308 81.7026C57.5259 84.3003 58.7263 86.7582 60.3729 88.9552L52.1553 104.447L62.2502 109.858L72.5578 95.4677C75.4302 95.7 78.3242 95.438 81.0942 94.6948L82.5288 107.999L96.8035 100.336L98.2557 85.5345C102.711 84.025 106.658 81.4493 109.697 78.0681L117.1 80.4856L127.195 64.2536L120.996 59.3199C122.342 55.2057 122.84 50.893 122.466 46.6073L135.554 37.9568ZM89.6307 76.2097C78.6856 82.0809 71.9202 77.8543 71.9202 66.1614C71.9202 54.4684 80.9703 40.0126 91.9331 34.1414C102.896 28.2703 109.52 32.4968 109.52 44.2885C109.52 56.0801 100.594 70.3221 89.6307 76.2097Z" fill="#E0E0E0"/>
<path d="M128.541 6.13428L117.064 0L106.757 14.3901L118.233 20.5408L128.541 6.13428Z" fill="#F5F5F5"/>
<path d="M147.048 28.7966L135.554 22.6458L122.431 28.1387L133.925 34.2895L147.048 28.7966Z" fill="#F5F5F5"/>
<path d="M93.9698 114.15L82.4934 107.999L81.0588 94.6948L92.5353 100.845L93.9698 114.15Z" fill="#E0E0E0"/>
<path d="M52.1022 104.447L63.5963 110.598L71.8671 95.1223L60.373 88.9716L52.1022 104.447Z" fill="#E0E0E0"/>
<path d="M147.048 44.1898V28.8788L133.925 34.3223C133.237 31.7223 132.036 29.2632 130.383 27.0698L138.653 11.5943L128.558 6.16718L118.251 20.5737C115.378 20.3325 112.483 20.5947 109.714 21.3466L108.262 8.00911L93.9875 15.6728L92.5353 30.474C89.4331 33.0345 86.5768 35.8409 83.9988 38.8614L73.6913 35.5722L63.5963 51.8207L71.8671 58.399C70.3341 61.9774 69.1486 65.676 68.325 69.4505L55.2015 78.0188V93.3462L68.325 87.8534C69.0124 90.4535 70.2134 92.9127 71.8671 95.1059L63.5963 110.581L73.6913 115.992L83.9988 101.602C86.8713 101.835 89.7654 101.573 92.5353 100.829L93.9875 114.134L108.262 106.47L109.697 91.6688C112.803 89.1126 115.66 86.3058 118.233 83.2814L128.541 86.5706L138.636 70.3386L130.365 63.7603C131.898 60.1817 133.083 56.4831 133.907 52.7087L147.048 44.1898ZM101.125 82.4427C90.162 88.3138 81.2714 83.5445 81.2714 71.8023C81.2714 60.06 90.1266 45.7686 101.125 39.881C112.123 33.9934 120.961 38.7792 120.961 50.5214C120.961 62.2637 112.07 76.4729 101.125 82.3605V82.4427Z" fill="#EBEBEB"/>
<path d="M72.5224 32.7436L83.9988 38.8943L73.6913 35.5558L62.2148 29.3886L72.5224 32.7436Z" fill="#F0F0F0"/>
<path d="M62.2136 29.4054L52.1159 45.6593L63.6062 51.8145L73.7039 35.5606L62.2136 29.4054Z" fill="#F5F5F5"/>
<path d="M52.1022 45.637L63.5963 51.7878L71.8671 58.3989L60.373 52.2647L52.1022 45.637Z" fill="#E0E0E0"/>
<path d="M56.8308 63.3162L68.325 69.4669L55.2015 78.0352L43.7073 71.8845L56.8308 63.3162Z" fill="#F5F5F5"/>
<path d="M43.7073 71.8845L55.2015 78.0352V93.3627L43.7073 87.212V71.8845Z" fill="#E0E0E0"/>
<path d="M108.262 8.00908L96.7681 1.85837L82.4934 9.52209L93.9698 15.6728L108.262 8.00908Z" fill="#F5F5F5"/>
<path d="M403.629 346.236C404.623 346.236 405.602 346.452 406.487 346.865L421.857 355.077L421.896 355.099L421.938 355.112C422.212 355.202 422.443 355.367 422.604 355.577C422.764 355.787 422.847 356.033 422.847 356.281C422.847 356.53 422.764 356.776 422.604 356.985C422.443 357.196 422.212 357.361 421.938 357.45L421.895 357.464L421.857 357.485L255.399 446.741C254.509 447.141 253.529 447.343 252.538 447.33C251.545 447.317 250.571 447.088 249.693 446.664L234.259 438.447L234.221 438.427L234.18 438.413L234.079 438.376C233.848 438.282 233.654 438.132 233.513 437.948C233.353 437.739 233.27 437.492 233.27 437.244C233.27 436.996 233.353 436.749 233.513 436.539C233.674 436.329 233.906 436.164 234.18 436.074L234.222 436.061L234.261 436.04L400.771 346.865C401.656 346.452 402.635 346.236 403.629 346.236Z" fill="#E0E0E0" stroke="black"/>
<path d="M417.759 13.7132C419.796 12.6253 421.528 12.5775 422.715 13.2151C423.89 13.8459 424.692 15.2348 424.693 17.3831V348.03C424.556 350.416 423.815 352.741 422.526 354.815C421.237 356.887 419.438 358.651 417.272 359.96L267.173 440.438C265.145 441.525 263.414 441.573 262.224 440.935C261.046 440.304 260.24 438.914 260.24 436.767V106.108C260.383 103.727 261.126 101.408 262.412 99.3382C263.7 97.2667 265.497 95.5013 267.66 94.1888L417.758 13.7122L417.759 13.7132Z" fill="#455A64" stroke="black"/>
<path d="M403.621 0.55658C406.208 0.556648 408.757 1.12183 411.062 2.20502L417.28 5.48529C419.239 6.68026 420.901 8.24478 422.159 10.0732C422.701 10.8603 423.162 11.6894 423.54 12.5488C423.269 12.3663 422.977 12.213 422.663 12.0947C421.148 11.524 419.262 11.7679 417.286 12.831L267.173 93.3163L267.161 93.3232C264.972 94.5721 263.137 96.2936 261.813 98.3427L241.108 87.3017C242.338 85.4058 244.034 83.7978 246.065 82.6142L396.175 2.20697C398.481 1.12226 401.033 0.55658 403.621 0.55658Z" fill="#37474F" stroke="black"/>
<path d="M261.246 99.2575C259.992 101.341 259.291 103.678 259.206 106.074L259.205 106.083V436.701C259.205 438.844 259.952 440.509 261.265 441.448C261.489 441.608 261.726 441.742 261.974 441.855C260.993 441.979 260 442.024 259.005 441.984C256.658 441.891 254.36 441.338 252.26 440.365L246.035 437.09C243.872 435.777 242.075 434.014 240.788 431.943C239.501 429.873 238.758 427.554 238.616 425.173V94.5143C238.718 92.3049 239.377 90.1479 240.541 88.2175L261.246 99.2575Z" fill="#263238" stroke="black"/>
<path d="M413.685 62.1941C414.871 61.5673 415.837 61.5648 416.472 61.905C417.094 62.2383 417.554 62.9864 417.554 64.2204V308.952C417.472 310.345 417.038 311.703 416.284 312.916C415.529 314.128 414.475 315.161 413.205 315.93L271.352 391.988C270.165 392.623 269.2 392.63 268.566 392.291C267.945 391.958 267.484 391.206 267.484 389.963V145.229C267.562 143.841 267.99 142.486 268.735 141.274C269.48 140.063 270.522 139.027 271.78 138.252L413.686 62.195L413.685 62.1941Z" fill="white" stroke="black"/>
<path d="M342.712 66.4823C343.362 66.1404 343.846 66.1621 344.134 66.3163C344.408 66.4635 344.654 66.814 344.657 67.4823C344.612 68.2609 344.371 69.0208 343.949 69.701C343.526 70.3825 342.934 70.9648 342.219 71.3993C341.562 71.7524 341.079 71.7373 340.796 71.5877C340.528 71.4464 340.277 71.0985 340.274 70.4002C340.323 69.6221 340.567 68.8633 340.989 68.1834C341.411 67.503 342 66.9194 342.712 66.4823Z" fill="#37474F" stroke="black"/>
<path d="M342.715 366.533C345.561 365.008 348.036 364.921 349.761 365.847C351.474 366.767 352.606 368.772 352.592 371.793C352.396 375.133 351.357 378.386 349.557 381.289C347.755 384.195 345.24 386.67 342.212 388.511C339.377 390.033 336.913 390.121 335.192 389.195C333.48 388.275 332.343 386.268 332.34 383.247C332.535 379.907 333.573 376.655 335.373 373.753C337.174 370.848 339.689 368.374 342.715 366.533Z" fill="#37474F" stroke="black"/>
<path d="M317.229 91.9375C318.631 91.194 319.791 91.1813 320.567 91.5977C321.33 92.0075 321.878 92.9199 321.881 94.3857C321.783 96.0351 321.269 97.6424 320.377 99.0771C319.485 100.511 318.24 101.734 316.74 102.644C315.379 103.391 314.239 103.406 313.473 102.99C312.719 102.58 312.17 101.665 312.168 100.196C312.257 98.5544 312.759 96.9522 313.636 95.5186C314.514 94.0841 315.743 92.8562 317.229 91.9375Z" fill="#37474F" stroke="black"/>
<path d="M369.715 65.9257C370.666 65.405 371.454 65.3803 371.964 65.6161C372.444 65.8386 372.812 66.3569 372.817 67.2617C372.727 68.3674 372.36 69.4411 371.741 70.3954C371.118 71.3542 370.258 72.1657 369.229 72.7636L333.817 91.787L333.814 91.789C332.863 92.31 332.075 92.3347 331.566 92.0976C331.086 91.8739 330.716 91.3518 330.711 90.4374C330.803 89.3346 331.172 88.2647 331.792 87.3134C332.414 86.3575 333.272 85.5466 334.298 84.9501L369.712 65.9277L369.715 65.9257Z" fill="#37474F" stroke="black"/>
<path d="M247.284 148.576C247.863 148.264 248.75 148.262 249.842 148.842C251.028 149.562 252.012 150.529 252.717 151.662C253.422 152.793 253.829 154.059 253.909 155.359C253.906 156.513 253.477 157.204 252.909 157.509C252.328 157.821 251.438 157.818 250.335 157.23C249.154 156.507 248.173 155.541 247.471 154.409C246.769 153.277 246.364 152.011 246.285 150.712C246.288 149.568 246.716 148.881 247.284 148.576Z" fill="#37474F" stroke="black"/>
<path d="M247.284 179.449C247.862 179.138 248.746 179.138 249.838 179.725C251.026 180.445 252.011 181.413 252.717 182.546C253.422 183.678 253.828 184.944 253.909 186.244C253.906 187.389 253.478 188.076 252.909 188.381C252.326 188.694 251.436 188.695 250.334 188.115C249.153 187.392 248.173 186.425 247.471 185.293C246.769 184.162 246.364 182.896 246.285 181.598C246.288 180.444 246.717 179.753 247.284 179.449Z" fill="#37474F" stroke="black"/>
<path d="M245.932 149.208C246.515 148.9 247.405 148.904 248.5 149.47C249.684 150.19 250.667 151.155 251.372 152.286C252.076 153.418 252.482 154.684 252.562 155.984C252.559 157.128 252.133 157.816 251.563 158.121C250.982 158.433 250.092 158.434 248.991 157.856C247.804 157.135 246.819 156.169 246.113 155.036C245.409 153.905 245.001 152.638 244.921 151.339C244.932 150.187 245.364 149.508 245.932 149.208Z" fill="#455A64" stroke="black"/>
<path d="M245.934 180.069C246.517 179.757 247.404 179.756 248.496 180.336C249.684 181.058 250.67 182.027 251.375 183.162C252.079 184.296 252.485 185.566 252.562 186.868C252.56 188.013 252.133 188.7 251.564 189.004C250.984 189.314 250.094 189.313 248.993 188.727C247.802 188.009 246.814 187.042 246.107 185.907C245.403 184.776 244.997 183.509 244.921 182.21C244.932 181.065 245.364 180.376 245.934 180.069Z" fill="#455A64" stroke="black"/>
<path d="M442.413 69.9406C443.6 69.305 444.565 69.2993 445.199 69.6388C445.82 69.9716 446.281 70.723 446.281 71.9669V316.632C446.198 318.025 445.765 319.383 445.01 320.596C444.256 321.808 443.201 322.841 441.931 323.611L425.009 332.685L300.079 399.668C298.891 400.304 297.926 400.31 297.292 399.971C296.672 399.638 296.211 398.886 296.21 397.643V152.977C296.293 151.584 296.728 150.226 297.482 149.014C298.238 147.799 299.293 146.763 300.566 145.993L425.428 79.0353L442.413 69.9406Z" fill="white" stroke="black"/>
<path d="M443.784 67.7207C444.587 67.6747 445.386 67.8501 446.078 68.2216C446.77 68.5931 447.322 69.1431 447.672 69.7968C448.021 70.4499 448.154 71.1806 448.057 71.8994L448.053 71.9336V71.9668L448.104 316.603C448.018 318.284 447.502 319.924 446.593 321.386C445.682 322.851 444.403 324.095 442.862 325.013L426.709 333.672L300.965 401.1L300.956 401.103C300.139 401.561 299.206 401.817 298.248 401.845C297.605 401.851 296.973 401.698 296.42 401.402C295.753 401.001 295.22 400.443 294.873 399.791C294.525 399.136 294.375 398.409 294.437 397.686L294.439 397.664V153.049C294.511 151.362 295.024 149.714 295.935 148.247C296.848 146.78 298.132 145.537 299.682 144.628L299.682 144.627L425.322 77.2099V77.209L441.527 68.5097L441.554 68.4951L441.578 68.4785C442.214 68.0322 442.981 67.7667 443.784 67.7207ZM444.377 70.0234C444.131 69.9955 443.88 70.0052 443.637 70.0537C443.329 70.1149 443.038 70.2376 442.781 70.4121L425.079 79.9297L301.035 146.535L301.006 146.553C299.876 147.263 298.932 148.204 298.246 149.308C297.56 150.411 297.152 151.648 297.054 152.924L297.053 152.943V397.609C297.053 398.036 297.117 398.402 297.229 398.696C297.336 398.976 297.508 399.246 297.765 399.393L297.831 399.43L297.905 399.446C298.229 399.518 298.565 399.521 298.891 399.456C299.198 399.395 299.488 399.272 299.745 399.098L423.905 332.53L423.908 332.529L425.36 331.739L425.355 331.723L441.492 323.074L441.507 323.065L441.522 323.057C442.652 322.346 443.596 321.404 444.281 320.301C444.967 319.197 445.375 317.961 445.474 316.686L445.474 316.666V71.9013C445.474 71.4749 445.41 71.1082 445.298 70.8144C445.191 70.5349 445.019 70.2648 444.763 70.1181L444.696 70.08L444.622 70.0644L444.377 70.0234Z" fill="#686DC8" stroke="black"/>
<path d="M371.482 129.259C379.364 125.047 386.373 124.697 391.376 127.38C396.367 130.056 399.526 135.84 399.526 144.262C399.526 152.689 396.342 162.055 391.168 170.376C385.995 178.695 378.861 185.923 371.011 190.099C363.156 194.279 356.146 194.631 351.134 191.958C346.137 189.291 342.966 183.528 342.966 175.115C342.966 166.697 346.15 157.347 351.324 149.031C356.497 140.716 363.631 133.478 371.482 129.259Z" fill="#686DC8" stroke="black"/>
<path d="M371.498 142.671C373.98 141.346 376.122 141.275 377.611 142.065C379.087 142.848 380.075 144.562 380.078 147.161C379.906 150.078 378.997 152.919 377.421 155.453C375.845 157.988 373.647 160.146 371.001 161.751C368.516 163.081 366.371 163.154 364.881 162.363C363.405 161.58 362.415 159.865 362.412 157.266C362.585 154.349 363.495 151.509 365.071 148.975C366.648 146.437 368.849 144.277 371.498 142.671Z" fill="#686DC8" stroke="black"/>
<path d="M374.333 163.928C378.487 161.706 382.135 161.551 384.71 162.933C387.27 164.306 388.93 167.284 388.935 171.69L388.852 173.65C384.295 180.323 378.162 185.951 370.912 190.105C364.516 193.571 358.632 194.379 353.947 193.075V191.001C353.947 186.579 355.625 181.638 358.366 177.229C361.106 172.822 364.88 168.993 369.02 166.774L374.333 163.928Z" fill="#686DC8" stroke="black"/>
<path opacity="0.7" d="M371.498 142.671C373.98 141.346 376.122 141.275 377.611 142.065C379.087 142.848 380.075 144.562 380.078 147.161C379.906 150.078 378.997 152.919 377.421 155.453C375.845 157.988 373.647 160.146 371.001 161.751C368.516 163.081 366.371 163.154 364.881 162.363C363.405 161.58 362.415 159.865 362.412 157.266C362.585 154.349 363.495 151.509 365.071 148.975C366.648 146.437 368.849 144.277 371.498 142.671Z" fill="white" stroke="black"/>
<path opacity="0.7" d="M374.333 163.928C378.487 161.706 382.135 161.551 384.71 162.933C387.27 164.306 388.93 167.284 388.935 171.69L388.852 173.65C384.295 180.323 378.162 185.951 370.912 190.105C364.516 193.571 358.632 194.379 353.947 193.075V191.001C353.947 186.579 355.625 181.638 358.366 177.229C361.106 172.822 364.88 168.993 369.02 166.774L374.333 163.928Z" fill="white" stroke="black"/>
<path d="M352.832 208.709C353.636 208.301 354.213 208.322 354.554 208.507C354.881 208.685 355.16 209.11 355.16 209.914V211.031C355.107 211.93 354.828 212.808 354.341 213.592C353.853 214.378 353.169 215.049 352.344 215.549L315.328 235.392H315.327C314.577 235.796 313.996 235.78 313.638 235.587C313.291 235.402 313 234.968 313 234.188V233.071C313.054 232.172 313.335 231.295 313.822 230.51C314.25 229.821 314.828 229.218 315.52 228.743L315.823 228.547L352.832 208.709Z" fill="#686DC8" stroke="black"/>
<path opacity="0.1" d="M352.832 208.709C353.636 208.301 354.213 208.322 354.554 208.507C354.881 208.685 355.16 209.11 355.16 209.914V211.031C355.107 211.93 354.828 212.808 354.341 213.592C353.853 214.378 353.169 215.049 352.344 215.549L315.328 235.392H315.327C314.577 235.796 313.996 235.78 313.638 235.587C313.291 235.402 313 234.968 313 234.188V233.071C313.054 232.172 313.335 231.295 313.822 230.51C314.25 229.821 314.828 229.218 315.52 228.743L315.823 228.547L352.832 208.709Z" fill="black" stroke="black"/>
<path d="M426.319 192.458C426.646 192.277 426.839 192.314 426.915 192.354C426.979 192.389 427.1 192.503 427.101 192.843V204.958C427.073 205.364 426.946 205.76 426.726 206.117C426.505 206.475 426.196 206.783 425.821 207.017L313.805 267.066L313.803 267.067C313.468 267.249 313.269 267.21 313.188 267.167C313.119 267.129 313 267.013 313 266.685V254.567C313.027 254.161 313.155 253.764 313.378 253.408C313.6 253.052 313.91 252.746 314.287 252.516L426.313 192.462L426.319 192.458Z" fill="#686DC8" stroke="black"/>
<path opacity="0.2" d="M426.319 192.458C426.646 192.277 426.839 192.314 426.915 192.354C426.979 192.389 427.1 192.503 427.101 192.843V204.958C427.073 205.364 426.946 205.76 426.726 206.117C426.505 206.475 426.196 206.783 425.821 207.017L313.805 267.066L313.803 267.067C313.468 267.249 313.269 267.21 313.188 267.167C313.119 267.129 313 267.013 313 266.685V254.567C313.027 254.161 313.155 253.764 313.378 253.408C313.6 253.052 313.91 252.746 314.287 252.516L426.313 192.462L426.319 192.458Z" fill="white" stroke="black"/>
<path d="M352.832 262.701C353.634 262.293 354.211 262.317 354.553 262.504C354.882 262.684 355.16 263.111 355.16 263.905V265.023C355.109 265.923 354.83 266.8 354.343 267.585C353.856 268.369 353.173 269.039 352.35 269.538L315.328 289.384L315.324 289.385C314.573 289.797 313.994 289.782 313.638 289.591C313.293 289.406 313 288.97 313 288.179V287.064C313.057 286.165 313.338 285.288 313.825 284.504C314.313 283.717 314.995 283.044 315.818 282.541L352.832 262.701Z" fill="#686DC8" stroke="black"/>
<path opacity="0.1" d="M352.832 262.701C353.634 262.293 354.211 262.317 354.553 262.504C354.882 262.684 355.16 263.111 355.16 263.905V265.023C355.109 265.923 354.83 266.8 354.343 267.585C353.856 268.369 353.173 269.039 352.35 269.538L315.328 289.384L315.324 289.385C314.573 289.797 313.994 289.782 313.638 289.591C313.293 289.406 313 288.97 313 288.179V287.064C313.057 286.165 313.338 285.288 313.825 284.504C314.313 283.717 314.995 283.044 315.818 282.541L352.832 262.701Z" fill="black" stroke="black"/>
<path d="M426.319 246.449C426.643 246.271 426.835 246.309 426.913 246.351C426.982 246.388 427.1 246.505 427.101 246.834V258.949C427.073 259.355 426.946 259.752 426.726 260.109C426.505 260.466 426.197 260.773 425.822 261.007L313.805 321.058L313.803 321.059C313.464 321.242 313.265 321.205 313.186 321.163C313.12 321.128 313 321.015 313 320.676V308.559C313.027 308.153 313.155 307.756 313.378 307.4C313.6 307.044 313.91 306.737 314.287 306.507L426.313 246.453L426.319 246.449Z" fill="#686DC8" stroke="black"/>
<path opacity="0.2" d="M426.319 246.449C426.643 246.271 426.835 246.309 426.913 246.351C426.982 246.388 427.1 246.505 427.101 246.834V258.949C427.073 259.355 426.946 259.752 426.726 260.109C426.505 260.466 426.197 260.773 425.822 261.007L313.805 321.058L313.803 321.059C313.464 321.242 313.265 321.205 313.186 321.163C313.12 321.128 313 321.015 313 320.676V308.559C313.027 308.153 313.155 307.756 313.378 307.4C313.6 307.044 313.91 306.737 314.287 306.507L426.313 246.453L426.319 246.449Z" fill="white" stroke="black"/>
<path d="M403.232 289.708C404.038 289.289 404.621 289.308 404.967 289.496C405.3 289.677 405.582 290.108 405.582 290.91V303.587C405.528 304.488 405.245 305.366 404.755 306.151C404.266 306.934 403.583 307.603 402.759 308.101L358.489 331.813C357.686 332.221 357.11 332.198 356.768 332.011C356.438 331.831 356.161 331.403 356.161 330.61V317.917C356.218 317.018 356.5 316.141 356.988 315.357C357.416 314.667 357.993 314.064 358.683 313.586L358.986 313.39L403.231 289.707L403.232 289.708Z" fill="#686DC8" stroke="black"/>
<path opacity="0.1" d="M403.232 289.708C404.038 289.289 404.621 289.308 404.967 289.496C405.3 289.677 405.582 290.108 405.582 290.91V303.587C405.528 304.488 405.245 305.366 404.755 306.151C404.266 306.934 403.583 307.603 402.759 308.101L358.489 331.813C357.686 332.221 357.11 332.198 356.768 332.011C356.438 331.831 356.161 331.403 356.161 330.61V317.917C356.218 317.018 356.5 316.141 356.988 315.357C357.416 314.667 357.993 314.064 358.683 313.586L358.986 313.39L403.231 289.707L403.232 289.708Z" fill="black" stroke="black"/>
<path d="M463.571 259.383C463.571 259.383 441.822 231.524 440.547 228.136C439.537 225.636 440.547 221.919 440.866 220.192C441.185 218.466 441.468 214.617 441.787 213.614C442.318 211.739 439.715 212.118 438.245 213.828C436.775 215.538 436.279 218.959 435.517 219.518C434.756 220.077 428.964 212.233 425.936 208.615C422.907 204.997 421.012 202.793 419.153 204.141C417.824 205.112 418.816 207.217 421.012 210.309C422.295 211.973 423.477 213.703 424.554 215.489C424.891 216.163 423.084 216.213 422.11 217.61C421.349 218.696 422.11 220.456 421.048 221.294C420.394 221.756 419.946 222.426 419.789 223.175C419.632 223.924 419.778 224.701 420.198 225.356C422.169 228.231 424.711 230.732 427.689 232.724C430.948 234.813 432.258 235.553 434.189 238.398C436.119 241.243 453.44 270.303 454.609 272.046C455.778 273.789 458.027 277.342 461.445 277.44C464.864 277.539 492.846 255.173 494.281 254.054C498.885 250.486 500.355 249.976 501.135 253.183C501.404 254.323 501.605 255.476 501.737 256.636C502.286 260.715 505.279 275.286 505.279 275.286C505.279 275.286 519.447 281.65 531.083 278.575C542.719 275.5 546.651 270.911 546.651 270.911L540.824 262.096C542.4 258.462 549.679 243.726 552.035 233.415L515.551 227.938C514.807 227.79 513.603 227.511 512.009 227.133C510.008 226.639 504.925 225.011 501.082 228.136C488.543 238.283 463.606 259.383 463.606 259.383" fill="#FFA8A7"/>
<path d="M535.901 430.32L529.365 438.757C532.335 440.045 535.581 440.691 538.858 440.648C544.72 440.845 546.332 439.004 546.545 438.642C547.536 436.668 545.996 433.116 545.57 430.057L535.901 430.32Z" fill="#37474F"/>
<path d="M529.737 434.711C529.737 434.711 521.803 434.234 516.33 433.609C510.858 432.984 506.519 435.451 507.794 437.54C509.069 439.628 512.098 441.372 516.809 442.835C520.829 444.102 525.664 445.006 529.844 446.124C534.023 447.243 536.928 448.706 539.354 447.917C542.064 447.045 543.233 446.042 543.003 444.2C542.411 441.58 541.678 438.99 540.806 436.438L529.737 434.711Z" fill="#37474F"/>
<path d="M546.545 421.851C546.545 421.851 545.553 429.514 545.482 431.159C545.411 432.803 537.424 433.33 535.901 430.32L535.653 420.946L546.545 421.851Z" fill="#F28F8F"/>
<path d="M538.504 426.554L541.355 438.198C541.355 438.198 541.621 439.612 535.104 440.517C528.586 441.421 518.349 437.343 516.596 436.52C514.843 435.698 514.648 434.037 521.059 434.366C527.47 434.695 529.737 434.711 529.737 434.711L527.647 429.564L538.504 426.554Z" fill="#FFA8A7"/>
<path d="M551.929 233.316L556.445 232.149C556.445 232.149 565.884 259.893 566.929 262.573C567.974 265.254 569.161 268.083 567.124 271.388C564.698 275.319 551.929 291.123 551.929 291.123L543.817 283.755L553.027 268.099L544.88 252.804L551.929 233.316Z" fill="#F28F8F"/>
<path d="M505.545 197.284C504.486 195.438 503.949 193.373 503.983 191.282C504.017 189.191 504.621 187.142 505.739 185.327C510.238 177.581 520.262 173.815 532.199 175.246C537.725 175.92 544.242 180.18 547.802 186.544C551.734 193.6 552.106 207.809 553.115 213.187L505.545 197.284Z" fill="#37474F"/>
<path d="M505.226 200.326C505.226 200.326 502.392 205.342 502.888 205.802C503.623 206.201 504.425 206.479 505.261 206.625L505.226 200.326Z" fill="#FFA8A7"/>
<path d="M513.833 184.472C510.752 186.331 505.438 189.751 505.208 201.017C504.96 212.529 506.731 216.328 508.573 217.66C509.813 218.564 517.092 218.104 520.209 217.43C523.326 216.755 532.305 212.627 535.546 206.362C539.354 198.994 538.575 188.271 532.925 184.982C530.05 183.403 526.789 182.528 523.45 182.439C520.111 182.35 516.802 183.049 513.833 184.472Z" fill="#FFA8A7"/>
<path d="M546.545 270.845C551.999 278.739 557.171 285.647 558.304 294.56C560.642 313.292 552.991 334.704 551.344 348.568C554.442 352.512 556.227 357.211 556.48 362.087C556.48 367.826 546.545 421.851 546.545 421.851C546.545 421.851 539.319 423.89 535.653 420.946L528.834 321.564L532.376 309.46L546.545 270.845Z" fill="#BA68C8"/>
<path opacity="0.2" d="M546.545 270.845C551.999 278.739 557.171 285.647 558.304 294.56C560.642 313.292 552.991 334.704 551.344 348.568C554.442 352.512 556.227 357.211 556.48 362.087C556.48 367.826 546.545 421.851 546.545 421.851C546.545 421.851 539.319 423.89 535.653 420.946L528.834 321.564L532.376 309.46L546.545 270.845Z" fill="black"/>
<path d="M528.834 321.564L532.376 309.46C539.158 307.802 545.7 305.389 551.858 302.273C551.858 302.273 548.174 308.506 537.583 311.927L532.111 327.468L531.65 363.073L528.834 321.564Z" fill="#BA68C8"/>
<path opacity="0.3" d="M528.834 321.564L532.376 309.46C539.158 307.802 545.7 305.389 551.858 302.273C551.858 302.273 548.174 308.506 537.583 311.927L532.111 327.468L531.65 363.073L528.834 321.564Z" fill="black"/>
<path d="M546.545 270.845C549.467 275.286 556.445 282.851 554.957 290.136C553.186 298.951 548.05 305.151 532.429 309.46L517.765 358.797C517.765 358.797 525.398 365.376 527.736 371.74C530.074 378.105 538.504 426.587 538.504 426.587C538.504 426.587 535.883 430.55 527.647 429.597C527.647 429.597 498.939 368.747 496.92 364.784C494.469 360.77 493.611 356.086 494.493 351.545C495.397 345.164 505.12 275.319 505.12 275.319L546.545 270.845Z" fill="#BA68C8"/>
<path opacity="0.2" d="M546.545 270.845C549.467 275.286 556.445 282.851 554.957 290.136C553.186 298.951 548.05 305.151 532.429 309.46L517.765 358.797C517.765 358.797 525.398 365.376 527.736 371.74C530.074 378.105 538.504 426.587 538.504 426.587C538.504 426.587 535.883 430.55 527.647 429.597C527.647 429.597 498.939 368.747 496.92 364.784C494.469 360.77 493.611 356.086 494.493 351.545C495.397 345.164 505.12 275.319 505.12 275.319L546.545 270.845Z" fill="black"/>
<path d="M551.929 233.316L515.445 227.84C514.701 227.692 513.497 227.412 511.903 227.034C511.903 227.034 510.344 248.282 500.975 253.15C501.206 254.169 501.4 255.304 501.577 256.603C502.127 260.682 505.12 275.253 505.12 275.253C505.12 275.253 519.288 281.617 530.924 278.542C542.56 275.467 546.491 270.878 546.491 270.878L540.665 262.063C542.294 258.396 549.626 243.661 551.929 233.316Z" fill="#BA68C8"/>
<path opacity="0.7" d="M551.929 233.316L515.445 227.84C514.701 227.692 513.497 227.412 511.903 227.034C511.903 227.034 510.344 248.282 500.975 253.15C501.206 254.169 501.4 255.304 501.577 256.603C502.127 260.682 505.12 275.253 505.12 275.253C505.12 275.253 519.288 281.617 530.924 278.542C542.56 275.467 546.491 270.878 546.491 270.878L540.665 262.063C542.294 258.396 549.626 243.661 551.929 233.316Z" fill="white"/>
<path d="M542.312 258.56C537.467 261.262 532.39 263.589 527.134 265.517C531.905 265.429 536.575 264.23 540.718 262.031L542.312 258.56Z" fill="#BA68C8"/>
<path d="M512.93 185.031C512.93 185.031 511.159 195.721 515.339 202.003C515.339 202.003 516.897 197.744 520.776 198.55C524.654 199.356 524.867 204.108 522.139 206.773C521.446 207.52 520.54 208.071 519.525 208.362C518.51 208.652 517.428 208.672 516.401 208.417C516.401 208.417 515.781 216.147 515.445 222.626C515.108 229.106 513.267 243.233 521.112 248.94C528.958 254.646 548.652 256.653 557.879 244.68C563.015 238.02 556.197 226.245 553.027 213.039C550.104 200.902 548.457 182.91 534.59 180.015C520.723 177.121 512.93 185.031 512.93 185.031Z" fill="#37474F"/>
<path d="M563.812 38.9765L560.89 40.6211C561.136 39.6556 561.272 38.669 561.298 37.6773C561.298 32.168 557.136 29.9478 552 32.7436C550.436 33.6191 549.042 34.7307 547.873 36.0327C547.873 28.6321 542.276 25.6225 535.369 29.3228C531.73 31.527 528.701 34.4969 526.528 37.9914C524.356 41.486 523.101 45.4069 522.866 49.436C522.866 49.8143 522.866 50.1761 522.866 50.5379C521.086 50.33 519.285 50.7146 517.783 51.6233C515.076 53.2609 512.824 55.468 511.209 58.0654C509.593 60.6628 508.66 63.5774 508.485 66.5725C508.484 67.2688 508.561 67.9633 508.715 68.6447L507.156 69.4834C502.924 71.753 499.488 76.1769 499.488 79.3509C499.488 82.5249 502.924 83.2814 507.156 80.9955L563.83 50.653C568.063 48.3835 571.499 43.9596 571.499 40.7856C571.499 37.6115 568.045 36.6906 563.812 38.9765Z" fill="#EBEBEB"/>
</svg>
