<svg width="29" height="29" viewBox="0 0 29 29" fill="none" xmlns="http://www.w3.org/2000/svg">
<path d="M14.5 20.5416C13.8591 20.5416 13.2444 20.287 12.7912 19.8338C12.3379 19.3806 12.0833 18.7659 12.0833 18.125C12.0833 16.7837 13.1587 15.7083 14.5 15.7083C15.1409 15.7083 15.7556 15.9629 16.2088 16.4161C16.662 16.8694 16.9167 17.484 16.9167 18.125C16.9167 18.7659 16.662 19.3806 16.2088 19.8338C15.7556 20.287 15.1409 20.5416 14.5 20.5416ZM21.75 24.1666V12.0833H7.24999V24.1666H21.75ZM21.75 9.66665C22.3909 9.66665 23.0056 9.92126 23.4588 10.3745C23.9121 10.8277 24.1667 11.4424 24.1667 12.0833V24.1666C24.1667 24.8076 23.9121 25.4223 23.4588 25.8755C23.0056 26.3287 22.3909 26.5833 21.75 26.5833H7.24999C6.60906 26.5833 5.99437 26.3287 5.54115 25.8755C5.08794 25.4223 4.83333 24.8076 4.83333 24.1666V12.0833C4.83333 10.7421 5.90874 9.66665 7.24999 9.66665H8.45833V7.24998C8.45833 5.64763 9.09486 4.11091 10.2279 2.97788C11.3609 1.84484 12.8976 1.20831 14.5 1.20831C15.2934 1.20831 16.079 1.36459 16.812 1.66821C17.545 1.97183 18.2111 2.41686 18.7721 2.97788C19.3331 3.5389 19.7781 4.20493 20.0818 4.93793C20.3854 5.67094 20.5417 6.45658 20.5417 7.24998V9.66665H21.75ZM14.5 3.62498C13.5386 3.62498 12.6166 4.0069 11.9367 4.68672C11.2569 5.36654 10.875 6.28857 10.875 7.24998V9.66665H18.125V7.24998C18.125 6.28857 17.7431 5.36654 17.0633 4.68672C16.3834 4.0069 15.4614 3.62498 14.5 3.62498Z" fill="black"/>
</svg>
